<?xml version="1.0" standalone="no"?>
<!DOCTYPE svg PUBLIC "-//W3C//DTD SVG 20010904//EN"
 "http://www.w3.org/TR/2001/REC-SVG-20010904/DTD/svg10.dtd">
<svg version="1.0" xmlns="http://www.w3.org/2000/svg"
 width="3975.000000pt" height="7978.000000pt" viewBox="0 0 3975.000000 7978.000000"
 preserveAspectRatio="xMidYMid meet">

<g transform="translate(0.000000,7978.000000) scale(0.100000,-0.100000)"
fill="#000000" stroke="none">
<path d="M18949 79767 c-2 -3 -134 -7 -294 -11 -416 -9 -1104 -39 -1410 -61
-38 -3 -196 -14 -350 -25 -4264 -307 -7885 -1379 -10650 -3155 -1422 -913
-2632 -2009 -3601 -3260 -77 -99 -155 -202 -174 -228 -19 -26 -48 -64 -64 -85
-198 -258 -653 -962 -851 -1317 -453 -812 -793 -1578 -1076 -2426 -170 -509
-328 -1101 -429 -1607 l-50 -253 0 -4758 0 -4759 153 -57 c611 -231 1490 -583
2292 -917 1352 -564 2188 -891 3475 -1356 1197 -434 2683 -939 4050 -1377 552
-177 726 -232 1225 -388 872 -273 1317 -409 2140 -655 562 -168 1135 -338
1215 -360 19 -5 112 -32 205 -60 539 -160 2019 -579 2685 -761 102 -27 388
-90 635 -140 554 -111 611 -122 1035 -215 1537 -335 2604 -622 3230 -868 273
-108 465 -216 532 -298 17 -22 35 -37 39 -34 5 3 9 -7839 9 -17615 l0 -17621
8410 0 8410 0 -3 26423 c-2 24971 -4 26431 -20 26592 -119 1170 -387 2177
-862 3240 -224 503 -598 1175 -890 1598 -203 295 -495 691 -535 727 -3 3 -26
32 -52 65 -148 195 -535 624 -817 905 -1236 1235 -2784 2251 -4641 3047 -1905
817 -4114 1392 -6630 1727 -1312 175 -2510 269 -4160 327 -292 10 -2171 24
-2181 16z m7002 -19182 c587 -56 1089 -259 1539 -622 844 -681 1227 -1790 984
-2848 -236 -1025 -1026 -1844 -2037 -2110 -476 -125 -969 -129 -1438 -10 -536
136 -1049 445 -1405 847 -423 477 -659 1009 -724 1633 -15 145 -13 450 5 600
105 889 610 1669 1375 2124 510 304 1120 442 1701 386z m2487 -7875 c149 -19
279 -77 364 -164 84 -86 70 -51 313 -731 115 -321 224 -625 276 -769 22 -59
38 -111 35 -113 -13 -14 -739 110 -1311 223 -458 91 -776 145 -1027 176 l-187
23 -6 55 c-33 292 33 538 200 747 168 210 413 361 771 476 235 75 403 98 572
77z m-1323 -1490 c685 -158 1958 -427 2322 -490 71 -13 72 -13 87 -54 15 -42
86 -238 336 -936 77 -217 147 -411 155 -431 17 -44 13 -49 -28 -43 -18 3 -176
25 -352 50 -466 65 -816 125 -1290 219 -231 45 -519 100 -640 121 -121 21
-223 43 -227 48 -4 6 -18 42 -32 81 -13 38 -52 149 -86 245 -82 231 -151 428
-243 690 -42 118 -101 285 -131 370 -57 157 -61 170 -50 170 3 0 84 -18 179
-40z m732 -1736 c691 -152 1505 -318 2063 -422 l205 -38 18 -49 c21 -56 223
-616 297 -825 27 -74 73 -204 104 -289 31 -85 54 -156 52 -158 -8 -8 -801 99
-1131 152 -235 38 -521 90 -820 150 -176 35 -383 75 -459 89 -77 15 -140 27
-141 29 -2 2 -47 128 -120 337 -20 58 -48 137 -62 175 -26 73 -163 460 -264
748 -32 92 -54 167 -50 167 5 0 144 -30 308 -66z m465 -1568 c703 -155 1479
-309 2277 -454 l94 -17 83 -230 c46 -126 97 -268 113 -315 16 -47 66 -186 111
-310 178 -493 212 -591 207 -596 -11 -12 -816 97 -1277 172 -297 48 -449 76
-860 159 -146 29 -297 58 -337 65 -40 6 -76 17 -81 23 -5 7 -18 39 -30 72 -11
33 -46 132 -77 220 -31 88 -85 241 -120 340 -35 99 -114 322 -175 495 -62 173
-120 339 -130 368 -11 28 -15 52 -10 52 6 0 101 -20 212 -44z m488 -1692 c76
-18 592 -129 695 -149 39 -8 193 -39 342 -69 351 -72 885 -174 1178 -226 127
-22 242 -43 257 -46 30 -6 24 7 112 -239 35 -99 141 -394 235 -657 94 -262
171 -481 171 -487 0 -6 -12 -8 -27 -6 -16 3 -134 16 -263 30 -550 60 -1222
149 -1660 221 -191 31 -592 104 -597 108 -1 1 -112 312 -413 1166 -65 184
-122 343 -125 353 -9 22 8 22 95 1z m765 -1748 c493 -100 687 -138 1045 -205
384 -72 1100 -194 1209 -207 33 -3 67 -12 75 -18 8 -6 40 -83 71 -171 31 -88
77 -216 102 -285 221 -614 323 -900 323 -908 0 -9 -37 -6 -480 49 -424 52
-813 108 -1185 170 -324 54 -896 166 -906 177 -3 4 -31 79 -62 167 -31 88 -92
261 -136 385 -203 574 -311 884 -311 892 0 5 8 7 18 4 9 -3 116 -25 237 -50z
m640 -1641 c356 -76 950 -196 1105 -225 58 -10 188 -35 290 -54 154 -29 566
-102 830 -146 l65 -11 93 -262 c129 -361 286 -797 377 -1047 29 -80 51 -148
49 -151 -6 -10 -840 100 -1299 172 -357 56 -1272 232 -1287 247 -4 4 -34 84
-66 177 -33 94 -72 204 -87 245 -14 41 -55 156 -90 255 -88 252 -292 826 -300
848 -4 9 -3 17 2 17 4 0 148 -29 318 -65z m510 -1696 c721 -155 1643 -337
2173 -428 122 -21 224 -40 226 -42 1 -2 30 -80 64 -174 33 -93 129 -359 213
-590 83 -231 154 -431 157 -444 4 -21 2 -23 -24 -17 -16 3 -112 15 -214 26
-385 44 -930 118 -1320 181 -375 60 -1022 188 -1032 203 -4 6 -23 56 -42 111
-19 55 -61 177 -94 270 -33 94 -99 280 -147 415 -145 411 -185 525 -185 533 0
5 8 6 18 3 9 -3 103 -24 207 -47z m622 -1530 c796 -167 1509 -305 2073 -399
134 -23 245 -42 245 -43 1 -1 28 -76 60 -167 54 -153 264 -740 356 -994 22
-60 38 -110 36 -112 -4 -4 -472 52 -717 86 -550 77 -889 134 -1452 245 -235
47 -430 85 -432 85 -2 0 -13 26 -24 58 -11 31 -82 230 -157 442 -75 212 -166
468 -202 570 -36 102 -73 209 -83 238 -15 42 -16 52 -5 52 8 0 144 -27 302
-61z m593 -1540 c129 -28 255 -54 280 -59 25 -5 110 -23 190 -40 395 -83 1216
-240 1651 -316 l155 -27 107 -296 c59 -163 124 -345 146 -406 21 -60 80 -223
129 -361 50 -138 94 -262 97 -275 l6 -25 -298 38 c-728 92 -1193 166 -1838
294 -236 47 -442 87 -456 90 -22 4 -30 18 -61 107 -56 158 -325 920 -365 1032
-19 55 -52 147 -73 205 -21 58 -36 108 -34 112 2 3 32 0 67 -8 34 -8 168 -37
297 -65z m502 -1604 c144 -30 292 -62 328 -70 232 -51 1038 -212 1345 -269
344 -63 646 -116 664 -116 19 0 10 25 246 -635 75 -209 160 -446 189 -527 54
-148 54 -148 30 -148 -68 0 -888 108 -1249 165 -353 55 -477 78 -932 167
l-422 83 -75 210 c-41 116 -105 296 -141 400 -71 202 -141 399 -224 634 -54
153 -59 176 -37 168 8 -3 133 -31 278 -62z m523 -1570 c674 -147 1504 -310
2135 -420 146 -26 265 -47 266 -48 1 -2 89 -248 185 -517 26 -74 90 -254 143
-400 52 -146 92 -268 88 -271 -4 -3 -142 11 -307 32 -823 104 -1290 178 -1979
317 l-339 68 -18 49 c-40 117 -428 1212 -435 1229 -6 16 -3 18 27 11 19 -4
124 -26 234 -50z m-5818 -291 c127 -26 223 -72 327 -158 68 -56 161 -177 184
-239 30 -80 44 -216 40 -403 l-3 -171 -295 59 c-543 108 -906 170 -1190 203
-74 9 -136 17 -137 19 -2 2 10 45 27 96 81 249 229 433 412 514 193 85 452
118 635 80z m-802 -838 c428 -98 1167 -260 1286 -281 66 -12 64 11 34 -415
-35 -488 -31 -965 10 -1259 8 -57 14 -106 12 -107 -6 -7 -557 92 -957 171
-419 83 -658 126 -897 161 -101 14 -123 20 -123 34 0 41 21 286 35 405 49 411
133 791 266 1200 21 66 39 128 39 138 0 9 3 17 8 17 4 0 133 -29 287 -64z
m7225 -352 c636 -136 1508 -306 2075 -404 132 -23 241 -43 243 -44 1 -2 88
-240 192 -530 104 -289 192 -530 195 -536 3 -6 -4 -10 -18 -10 -36 0 -630 75
-922 116 -488 68 -795 122 -1430 247 l-270 53 -86 240 c-47 131 -119 336 -161
454 -42 118 -97 274 -122 345 -25 72 -46 134 -46 138 0 4 10 5 23 2 12 -3 159
-35 327 -71z m464 -1344 c521 -111 547 -116 811 -169 398 -80 920 -177 1315
-246 112 -20 208 -39 212 -43 4 -4 36 -88 71 -187 35 -99 133 -372 217 -608
84 -235 151 -429 148 -432 -10 -11 -807 84 -1311 155 -454 65 -1007 160 -1257
216 l-66 15 -26 77 c-15 42 -50 142 -78 222 -28 80 -80 226 -115 325 -108 307
-243 689 -254 718 -6 15 -7 27 -4 27 4 0 156 -32 337 -70z m-8234 -146 c375
-88 1896 -414 1936 -414 1 0 8 -17 14 -37 49 -152 114 -262 230 -388 125 -136
204 -246 455 -637 228 -355 335 -516 427 -639 31 -43 55 -79 53 -81 -9 -8
-814 98 -1195 158 -315 49 -564 94 -935 169 -325 65 -723 138 -827 150 -32 4
-58 10 -58 14 0 3 -16 73 -35 156 -62 269 -104 521 -129 780 -24 240 -26 277
-32 538 -6 283 -16 258 96 231z m9225 -1489 c614 -123 1109 -215 1550 -286
176 -28 325 -53 331 -54 16 -5 60 -194 79 -338 47 -367 -11 -688 -166 -913
-60 -86 -150 -174 -178 -174 -100 0 -1147 134 -1611 206 -385 60 -1153 203
-1167 218 -3 2 51 34 119 71 308 169 614 374 612 411 -1 11 -66 199 -144 419
-114 321 -210 595 -210 601 0 0 60 -12 133 -28 72 -16 366 -76 652 -133z
m-9026 -365 c103 -29 1111 -244 1636 -349 533 -107 1282 -245 1446 -267 51 -7
52 -8 277 -233 300 -300 498 -448 799 -600 364 -182 705 -260 1143 -261 374
-1 649 44 1115 185 405 123 869 292 1141 415 66 30 66 30 128 15 442 -107
1815 -380 2491 -496 138 -23 252 -44 254 -46 5 -3 -156 -243 -233 -348 -158
-213 -329 -417 -475 -567 l-76 -78 -147 0 c-373 0 -2014 167 -2908 296 -490
71 -810 126 -1300 225 -750 151 -1327 230 -1496 204 -44 -7 -47 -8 -24 -17 13
-5 142 -36 285 -69 143 -33 287 -66 320 -74 145 -34 395 -89 715 -159 1763
-383 3152 -621 4148 -711 39 -4 72 -11 72 -16 0 -5 -3 -9 -7 -9 -5 0 -24 -15
-43 -33 -44 -41 -196 -162 -325 -259 -324 -243 -712 -471 -1094 -645 -1109
-502 -2342 -647 -3471 -407 -1328 283 -2512 1058 -3390 2218 -428 567 -770
1234 -989 1931 -21 66 -41 130 -45 143 -8 25 -1 27 53 12z"/>
<path d="M0 54090 l0 -3129 113 -35 c61 -20 220 -69 352 -110 528 -163 924
-290 1565 -501 540 -177 689 -225 1090 -350 871 -271 1915 -570 2955 -849 391
-104 568 -151 1106 -290 360 -93 1383 -348 1899 -472 130 -32 954 -226 1220
-289 58 -13 143 -33 190 -44 47 -11 126 -29 175 -40 50 -11 160 -36 245 -56
354 -82 1191 -269 1705 -381 215 -47 440 -96 500 -109 103 -23 766 -163 1135
-241 194 -41 426 -89 525 -109 39 -7 234 -47 435 -89 201 -41 595 -120 875
-176 281 -55 554 -110 607 -121 53 -10 104 -19 112 -19 14 0 16 75 18 696 l3
696 515 192 c283 105 616 229 740 275 124 46 452 168 730 272 2011 749 2879
1072 3005 1117 55 19 105 40 110 45 7 7 7 8 0 4 -6 -3 -109 -14 -230 -24 -305
-25 -916 -25 -1165 0 -1210 122 -2703 470 -4830 1127 -626 193 -1686 546
-2520 838 -1671 586 -3354 1220 -5410 2038 -608 242 -1207 484 -1855 749 -393
160 -703 289 -1275 528 -250 104 -507 211 -570 237 -820 340 -3201 1363 -4012
1723 l-58 26 0 -3129z"/>
<path d="M2 47388 l3 -2951 175 -54 c450 -140 949 -300 1520 -488 746 -245
1045 -339 1695 -535 948 -285 1789 -519 3100 -865 695 -183 1880 -477 3030
-750 168 -40 626 -147 690 -160 33 -8 109 -25 168 -40 60 -14 218 -50 350 -80
133 -30 393 -88 577 -130 299 -67 662 -148 1130 -250 149 -33 384 -83 1000
-215 664 -142 1568 -328 2340 -481 250 -49 487 -96 525 -104 123 -26 488 -95
502 -95 11 0 13 468 13 2595 l0 2595 -22 5 c-13 2 -133 27 -268 54 -500 101
-1210 261 -1850 416 -2594 628 -5689 1522 -9383 2711 -248 80 -542 175 -652
211 -110 36 -285 93 -390 126 -225 73 -2557 853 -2960 990 -316 108 -805 276
-1000 344 -72 24 -167 58 -213 73 l-82 29 2 -2951z"/>
<path d="M0 41068 l0 -2733 293 -89 c383 -117 1142 -359 1557 -496 782 -259
1198 -391 1825 -578 1620 -486 3409 -961 5600 -1488 176 -42 365 -87 420 -100
1515 -351 1432 -332 2185 -500 729 -162 922 -204 1390 -304 157 -33 314 -67
350 -75 73 -17 661 -140 1175 -246 838 -173 1974 -399 2005 -399 20 0 20 3 20
2414 l0 2414 -47 10 c-27 6 -88 18 -138 27 -598 111 -1952 418 -2975 677
-1484 374 -3169 843 -4905 1364 -192 58 -393 118 -445 134 -1808 535 -5485
1730 -8074 2624 -121 42 -223 76 -228 76 -4 0 -8 -1230 -8 -2732z"/>
<path d="M0 34542 l0 -3167 351 -109 c590 -182 1046 -329 1719 -551 1702 -561
3547 -1084 5890 -1669 889 -222 2425 -589 2930 -700 63 -14 205 -46 315 -71
724 -166 2189 -485 2980 -650 944 -196 1086 -225 1890 -385 385 -77 710 -142
723 -145 l22 -5 0 2835 c0 1559 -3 2835 -6 2835 -18 0 -654 134 -999 210 -600
133 -992 225 -1740 412 -1204 299 -2858 751 -4135 1128 -96 29 -213 63 -260
77 -853 248 -2596 783 -3665 1125 -137 44 -349 111 -470 149 -121 39 -393 127
-605 195 -212 69 -484 158 -605 197 -330 106 -2927 976 -3335 1116 -195 67
-380 131 -410 141 -30 10 -174 59 -319 109 -145 50 -265 91 -267 91 -2 0 -4
-1425 -4 -3168z"/>
<path d="M0 27956 l0 -2794 33 -11 c17 -5 122 -37 232 -71 222 -68 972 -305
1105 -350 177 -58 1072 -351 1220 -398 928 -298 2180 -661 3470 -1006 339 -90
430 -114 920 -241 913 -236 2172 -543 3410 -831 270 -62 313 -72 605 -138 110
-24 301 -68 425 -96 124 -28 358 -80 520 -115 162 -36 333 -74 380 -85 126
-29 882 -192 1183 -256 144 -30 366 -77 492 -104 253 -54 414 -87 1070 -221
546 -111 986 -199 1395 -279 173 -34 325 -64 338 -67 l22 -5 0 2454 0 2455
-112 22 c-62 13 -162 34 -223 46 -60 13 -218 47 -350 75 -362 78 -505 109
-915 204 -504 115 -1609 388 -1950 481 -47 12 -150 40 -230 60 -756 195 -2204
600 -3330 932 -234 69 -441 130 -460 135 -476 136 -2654 810 -3585 1109 -154
50 -413 133 -575 186 -1079 347 -2827 928 -3990 1326 -551 189 -1000 343
-1049 361 -24 9 -45 16 -47 16 -2 0 -4 -1257 -4 -2794z"/>
<path d="M0 22133 l0 -2398 123 -42 c153 -52 415 -144 762 -268 1519 -543
3018 -1020 4865 -1546 2181 -622 4279 -1165 7110 -1840 47 -11 112 -26 145
-34 33 -8 166 -39 295 -69 481 -113 1280 -296 1885 -431 236 -52 308 -68 729
-160 115 -25 365 -68 555 -95 190 -28 347 -50 349 -50 1 0 2 989 2 2198 l0
2197 -173 34 c-295 57 -975 203 -1267 271 -69 16 -195 46 -280 65 -1278 295
-2966 739 -4635 1220 -1970 568 -3792 1131 -6155 1900 -757 247 -2535 841
-3260 1090 -91 31 -183 62 -205 70 -73 24 -448 153 -640 219 -104 36 -193 66
-197 66 -5 0 -8 -1079 -8 -2397z"/>
<path d="M0 16113 l0 -2958 108 -37 c59 -20 201 -70 317 -112 392 -140 570
-204 645 -229 41 -14 208 -71 370 -127 489 -167 1200 -398 1860 -601 821 -254
1369 -415 2670 -784 297 -84 1169 -322 1720 -469 1230 -327 2803 -723 4175
-1051 83 -20 206 -49 275 -66 521 -125 2129 -496 2660 -613 888 -196 867 -191
1254 -247 193 -27 437 -63 543 -79 106 -17 199 -30 208 -30 13 0 15 259 15
2575 l0 2575 -22 5 c-13 2 -86 16 -163 31 -283 52 -901 184 -1280 273 -504
118 -621 146 -980 236 -1825 460 -3895 1069 -6365 1872 -839 272 -2191 726
-3020 1013 -146 51 -335 116 -420 145 -142 48 -747 260 -1120 392 -85 30 -191
68 -235 83 -321 113 -803 285 -1065 380 -135 49 -378 137 -540 195 -162 58
-362 131 -445 161 -82 30 -161 59 -175 64 -14 5 -240 88 -503 185 -263 96
-480 175 -482 175 -3 0 -5 -1331 -5 -2957z"/>
<path d="M0 9743 l0 -2738 53 -16 c28 -9 180 -62 337 -118 1035 -371 1739
-609 2650 -895 510 -160 1033 -318 1670 -506 1494 -441 3426 -961 5400 -1454
1022 -255 1349 -335 2030 -497 350 -83 637 -151 775 -184 133 -32 979 -227
1175 -271 85 -19 245 -55 355 -80 110 -25 250 -56 310 -70 140 -31 600 -132
860 -189 110 -24 301 -57 425 -75 124 -17 343 -49 488 -70 145 -22 270 -40
278 -40 12 0 14 335 14 2408 l0 2407 -193 33 c-616 107 -1513 301 -2377 512
-323 80 -909 229 -1135 290 -607 163 -1075 293 -1625 452 -400 115 -492 142
-1015 298 -1724 515 -3935 1234 -6200 2018 -450 156 -909 317 -1235 432 -173
62 -358 127 -410 145 -52 18 -178 63 -280 100 -102 37 -228 82 -280 100 -226
78 -1317 473 -1784 646 -149 54 -274 99 -278 99 -4 0 -8 -1232 -8 -2737z"/>
<path d="M0 3170 l0 -3170 8410 0 8410 0 0 593 0 593 -232 43 c-1506 279
-3316 731 -5513 1378 -402 118 -1284 385 -1607 487 -79 25 -222 70 -318 100
-410 128 -776 244 -1090 346 -184 60 -396 128 -470 152 -164 52 -2207 735
-2515 841 -121 41 -326 112 -455 157 -129 45 -298 103 -375 130 -77 26 -237
82 -355 123 -118 42 -305 107 -415 145 -110 39 -342 120 -515 182 -173 62
-358 127 -410 145 -320 111 -2349 846 -2522 914 l-28 11 0 -3170z"/>
</g>
</svg>
